<svg xmlns="http://www.w3.org/2000/svg" xmlns:xlink="http://www.w3.org/1999/xlink" width="250" viewBox="0 0 187.5 187.499992" height="250" preserveAspectRatio="xMidYMid meet"><path fill="#ff5757" d="M 185.15625 93.492188 C 185.15625 42.863281 144.117188 1.824219 93.492188 1.824219 C 42.863281 1.824219 1.824219 42.863281 1.824219 93.492188 C 1.824219 144.117188 42.863281 185.15625 93.492188 185.15625 C 144.117188 185.15625 185.15625 144.117188 185.15625 93.492188 " fill-opacity="1" fill-rule="nonzero"></path><path fill="#000000" d="M 93.492188 3.644531 C 43.949219 3.644531 3.644531 43.949219 3.644531 93.492188 C 3.644531 143.03125 43.949219 183.335938 93.492188 183.335938 C 143.03125 183.335938 183.335938 143.03125 183.335938 93.492188 C 183.335938 43.949219 143.03125 3.644531 93.492188 3.644531 Z M 93.492188 186.980469 C 68.519531 186.980469 45.039062 177.253906 27.382812 159.597656 C 9.726562 141.941406 0 118.460938 0 93.492188 C 0 68.519531 9.726562 45.039062 27.382812 27.382812 C 45.039062 9.726562 68.519531 0 93.492188 0 C 118.460938 0 141.941406 9.726562 159.597656 27.382812 C 177.253906 45.039062 186.980469 68.519531 186.980469 93.492188 C 186.980469 118.460938 177.253906 141.941406 159.597656 159.597656 C 141.941406 177.253906 118.460938 186.980469 93.492188 186.980469 " fill-opacity="1" fill-rule="nonzero"></path><path fill="#f8fafb" d="M 177.449219 93.492188 C 177.449219 47.121094 139.859375 9.53125 93.492188 9.53125 C 47.121094 9.53125 9.53125 47.121094 9.53125 93.492188 C 9.53125 139.859375 47.121094 177.449219 93.492188 177.449219 C 139.859375 177.449219 177.449219 139.859375 177.449219 93.492188 " fill-opacity="1" fill-rule="nonzero"></path><path fill="#fefefe" d="M 171.40625 93.492188 C 171.40625 50.457031 136.523438 15.574219 93.492188 15.574219 C 50.457031 15.574219 15.574219 50.457031 15.574219 93.492188 C 15.574219 136.523438 50.457031 171.40625 93.492188 171.40625 C 136.523438 171.40625 171.40625 136.523438 171.40625 93.492188 " fill-opacity="1" fill-rule="nonzero"></path><path fill="#ff3131" d="M 137.316406 129.488281 C 136.488281 129.488281 135.820312 128.816406 135.820312 127.992188 C 135.820312 127.167969 136.488281 126.496094 137.316406 126.496094 C 138.140625 126.496094 138.8125 127.167969 138.8125 127.992188 C 138.8125 128.816406 138.140625 129.488281 137.316406 129.488281 Z M 137.316406 122.746094 C 134.421875 122.746094 132.070312 125.097656 132.070312 127.992188 C 132.070312 130.886719 134.421875 133.238281 137.316406 133.238281 C 140.210938 133.238281 142.5625 130.886719 142.5625 127.992188 C 142.5625 125.097656 140.210938 122.746094 137.316406 122.746094 " fill-opacity="1" fill-rule="nonzero"></path><path fill="#ff3131" d="M 53.75 114.636719 C 52.714844 114.636719 51.875 115.476562 51.875 116.511719 L 51.875 124.445312 L 48.621094 124.445312 L 48.621094 116.511719 C 48.621094 115.476562 47.78125 114.636719 46.746094 114.636719 C 45.707031 114.636719 44.871094 115.476562 44.871094 116.511719 L 44.871094 125.308594 C 44.871094 126.898438 46.164062 128.195312 47.753906 128.195312 L 52.742188 128.195312 C 54.332031 128.195312 55.625 126.898438 55.625 125.308594 L 55.625 116.511719 C 55.625 115.476562 54.785156 114.636719 53.75 114.636719 " fill-opacity="1" fill-rule="nonzero"></path><path fill="#ff3131" d="M 81.265625 114.636719 C 80.230469 114.636719 79.390625 115.476562 79.390625 116.511719 L 79.390625 124.445312 L 76.136719 124.445312 L 76.136719 116.511719 C 76.136719 115.476562 75.296875 114.636719 74.261719 114.636719 C 73.222656 114.636719 72.386719 115.476562 72.386719 116.511719 L 72.386719 125.308594 C 72.386719 126.898438 73.675781 128.195312 75.269531 128.195312 L 80.257812 128.195312 C 81.847656 128.195312 83.140625 126.898438 83.140625 125.308594 L 83.140625 116.511719 C 83.140625 115.476562 82.300781 114.636719 81.265625 114.636719 " fill-opacity="1" fill-rule="nonzero"></path><path fill="#ff3131" d="M 53.75 90.113281 C 52.714844 90.113281 51.875 90.953125 51.875 91.988281 L 51.875 99.921875 L 48.621094 99.921875 L 48.621094 91.988281 C 48.621094 90.953125 47.78125 90.113281 46.746094 90.113281 C 45.707031 90.113281 44.871094 90.953125 44.871094 91.988281 L 44.871094 100.789062 C 44.871094 102.378906 46.164062 103.671875 47.753906 103.671875 L 52.742188 103.671875 C 54.332031 103.671875 55.625 102.378906 55.625 100.789062 L 55.625 91.988281 C 55.625 90.953125 54.785156 90.113281 53.75 90.113281 " fill-opacity="1" fill-rule="nonzero"></path><path fill="#ff3131" d="M 81.265625 90.113281 C 80.230469 90.113281 79.390625 90.953125 79.390625 91.988281 L 79.390625 99.921875 L 76.136719 99.921875 L 76.136719 91.988281 C 76.136719 90.953125 75.296875 90.113281 74.261719 90.113281 C 73.222656 90.113281 72.386719 90.953125 72.386719 91.988281 L 72.386719 100.789062 C 72.386719 102.378906 73.675781 103.671875 75.269531 103.671875 L 80.257812 103.671875 C 81.847656 103.671875 83.140625 102.378906 83.140625 100.789062 L 83.140625 91.988281 C 83.140625 90.953125 82.300781 90.113281 81.265625 90.113281 " fill-opacity="1" fill-rule="nonzero"></path><path fill="#ff3131" d="M 53.75 65.59375 C 52.714844 65.59375 51.875 66.433594 51.875 67.46875 L 51.875 75.402344 L 48.621094 75.402344 L 48.621094 67.46875 C 48.621094 66.433594 47.78125 65.59375 46.746094 65.59375 C 45.707031 65.59375 44.871094 66.433594 44.871094 67.46875 L 44.871094 76.269531 C 44.871094 77.859375 46.164062 79.152344 47.753906 79.152344 L 52.742188 79.152344 C 54.332031 79.152344 55.625 77.859375 55.625 76.269531 L 55.625 67.46875 C 55.625 66.433594 54.785156 65.59375 53.75 65.59375 " fill-opacity="1" fill-rule="nonzero"></path><path fill="#ff3131" d="M 81.265625 65.59375 C 80.230469 65.59375 79.390625 66.433594 79.390625 67.46875 L 79.390625 75.402344 L 76.136719 75.402344 L 76.136719 67.46875 C 76.136719 66.433594 75.296875 65.59375 74.261719 65.59375 C 73.222656 65.59375 72.386719 66.433594 72.386719 67.46875 L 72.386719 76.269531 C 72.386719 77.859375 73.675781 79.152344 75.269531 79.152344 L 80.257812 79.152344 C 81.847656 79.152344 83.140625 77.859375 83.140625 76.269531 L 83.140625 67.46875 C 83.140625 66.433594 82.300781 65.59375 81.265625 65.59375 " fill-opacity="1" fill-rule="nonzero"></path><path fill="#ff3131" d="M 81.265625 41.074219 C 80.230469 41.074219 79.390625 41.914062 79.390625 42.949219 L 79.390625 50.882812 L 76.136719 50.882812 L 76.136719 42.949219 C 76.136719 41.914062 75.296875 41.074219 74.261719 41.074219 C 73.222656 41.074219 72.386719 41.914062 72.386719 42.949219 L 72.386719 51.75 C 72.386719 53.339844 73.675781 54.632812 75.269531 54.632812 L 80.257812 54.632812 C 81.847656 54.632812 83.140625 53.339844 83.140625 51.75 L 83.140625 42.949219 C 83.140625 41.914062 82.300781 41.074219 81.265625 41.074219 " fill-opacity="1" fill-rule="nonzero"></path><path fill="#000000" d="M 119.539062 79.261719 C 124.484375 79.261719 128.507812 83.28125 128.507812 88.226562 C 128.507812 93.171875 124.484375 97.195312 119.539062 97.195312 C 114.59375 97.195312 110.570312 93.171875 110.570312 88.226562 C 110.570312 83.28125 114.59375 79.261719 119.539062 79.261719 Z M 119.539062 100.945312 C 126.554688 100.945312 132.257812 95.238281 132.257812 88.226562 C 132.257812 81.214844 126.554688 75.511719 119.539062 75.511719 C 112.527344 75.511719 106.820312 81.214844 106.820312 88.226562 C 106.820312 95.238281 112.527344 100.945312 119.539062 100.945312 " fill-opacity="1" fill-rule="nonzero"></path><path fill="#000000" d="M 154.578125 117.976562 L 151.976562 127.339844 L 149.046875 137.652344 C 148.792969 138.539062 147.972656 139.15625 147.050781 139.15625 L 117.742188 139.15625 C 117.355469 139.15625 117.132812 138.933594 117.03125 138.804688 C 116.929688 138.671875 116.78125 138.394531 116.886719 138.023438 L 119.546875 128.644531 L 120.617188 124.804688 C 120.6875 124.65625 120.726562 124.492188 120.753906 124.324219 L 122.417969 118.339844 C 122.671875 117.453125 123.492188 116.832031 124.414062 116.832031 L 153.722656 116.832031 C 154.109375 116.832031 154.332031 117.054688 154.433594 117.1875 C 154.535156 117.320312 154.683594 117.597656 154.578125 117.976562 Z M 65.878906 136.652344 L 79.644531 136.652344 C 80.679688 136.652344 81.519531 135.8125 81.519531 134.777344 C 81.519531 133.742188 80.679688 132.902344 79.644531 132.902344 L 65.878906 132.902344 L 65.878906 118.386719 L 89.644531 118.386719 L 89.644531 132.902344 L 86.613281 132.902344 C 85.578125 132.902344 84.738281 133.742188 84.738281 134.777344 C 84.738281 135.8125 85.578125 136.652344 86.613281 136.652344 L 89.644531 136.652344 L 89.644531 139.15625 L 65.878906 139.15625 Z M 38.363281 136.652344 L 52.132812 136.652344 C 53.167969 136.652344 54.007812 135.8125 54.007812 134.777344 C 54.007812 133.742188 53.167969 132.902344 52.132812 132.902344 L 38.363281 132.902344 L 38.363281 118.386719 L 62.128906 118.386719 L 62.128906 132.902344 L 59.101562 132.902344 C 58.066406 132.902344 57.226562 133.742188 57.226562 134.777344 C 57.226562 135.8125 58.066406 136.652344 59.101562 136.652344 L 62.128906 136.652344 L 62.128906 139.15625 L 38.363281 139.15625 Z M 62.128906 69.34375 L 62.128906 83.859375 L 59.101562 83.859375 C 58.066406 83.859375 57.226562 84.699219 57.226562 85.734375 C 57.226562 86.769531 58.066406 87.609375 59.101562 87.609375 L 62.128906 87.609375 L 62.128906 90.113281 L 38.363281 90.113281 L 38.363281 87.609375 L 52.132812 87.609375 C 53.167969 87.609375 54.007812 86.769531 54.007812 85.734375 C 54.007812 84.699219 53.167969 83.859375 52.132812 83.859375 L 38.363281 83.859375 L 38.363281 69.34375 Z M 89.644531 44.824219 L 89.644531 59.339844 L 86.613281 59.339844 C 85.578125 59.339844 84.738281 60.179688 84.738281 61.214844 C 84.738281 62.25 85.578125 63.089844 86.613281 63.089844 L 89.644531 63.089844 L 89.644531 65.59375 L 65.878906 65.59375 L 65.878906 63.089844 L 79.644531 63.089844 C 80.679688 63.089844 81.519531 62.25 81.519531 61.214844 C 81.519531 60.179688 80.679688 59.339844 79.644531 59.339844 L 65.878906 59.339844 L 65.878906 44.824219 Z M 65.878906 112.128906 L 79.644531 112.128906 C 80.679688 112.128906 81.519531 111.292969 81.519531 110.253906 C 81.519531 109.21875 80.679688 108.378906 79.644531 108.378906 L 65.878906 108.378906 L 65.878906 93.863281 L 89.644531 93.863281 L 89.644531 108.378906 L 86.613281 108.378906 C 85.578125 108.378906 84.738281 109.21875 84.738281 110.253906 C 84.738281 111.292969 85.578125 112.128906 86.613281 112.128906 L 89.644531 112.128906 L 89.644531 114.636719 L 65.878906 114.636719 Z M 89.644531 83.859375 L 86.613281 83.859375 C 85.578125 83.859375 84.738281 84.699219 84.738281 85.734375 C 84.738281 86.769531 85.578125 87.609375 86.613281 87.609375 L 89.644531 87.609375 L 89.644531 90.113281 L 65.878906 90.113281 L 65.878906 87.609375 L 79.644531 87.609375 C 80.679688 87.609375 81.519531 86.769531 81.519531 85.734375 C 81.519531 84.699219 80.679688 83.859375 79.644531 83.859375 L 65.878906 83.859375 L 65.878906 69.34375 L 89.644531 69.34375 Z M 38.363281 112.128906 L 52.132812 112.128906 C 53.167969 112.128906 54.007812 111.292969 54.007812 110.253906 C 54.007812 109.21875 53.167969 108.378906 52.132812 108.378906 L 38.363281 108.378906 L 38.363281 93.863281 L 62.128906 93.863281 L 62.128906 108.378906 L 59.101562 108.378906 C 58.066406 108.378906 57.226562 109.21875 57.226562 110.253906 C 57.226562 111.292969 58.066406 112.128906 59.101562 112.128906 L 62.128906 112.128906 L 62.128906 114.636719 L 38.363281 114.636719 Z M 157.425781 114.925781 C 156.539062 113.753906 155.191406 113.082031 153.722656 113.082031 L 124.414062 113.082031 C 121.824219 113.082031 119.519531 114.824219 118.808594 117.324219 L 117.457031 122.171875 L 110.960938 122.171875 L 110.960938 118.003906 C 110.960938 116.96875 110.121094 116.128906 109.085938 116.128906 C 108.046875 116.128906 107.210938 116.96875 107.210938 118.003906 L 107.210938 122.753906 C 107.210938 124.5 108.628906 125.921875 110.378906 125.921875 L 116.414062 125.921875 L 115.9375 127.628906 L 114.65625 132.144531 L 107.929688 132.144531 C 104.070312 132.144531 100.925781 129 100.925781 125.140625 L 100.925781 117.417969 C 100.925781 111.75 105.539062 107.140625 111.203125 107.140625 L 127.875 107.140625 C 130.492188 107.140625 132.984375 108.125 134.894531 109.910156 C 135.652344 110.621094 136.839844 110.582031 137.542969 109.824219 C 138.253906 109.066406 138.214844 107.878906 137.457031 107.171875 C 134.847656 104.734375 131.449219 103.390625 127.875 103.390625 L 111.203125 103.390625 C 103.46875 103.390625 97.175781 109.683594 97.175781 117.417969 L 97.175781 125.140625 C 97.175781 131.070312 102 135.894531 107.929688 135.894531 L 113.589844 135.894531 L 113.277344 136.996094 C 113.074219 137.714844 113.046875 138.453125 113.183594 139.15625 L 93.394531 139.15625 L 93.394531 117.847656 C 93.394531 117.371094 93.285156 116.917969 93.101562 116.511719 C 93.285156 116.101562 93.394531 115.648438 93.394531 115.171875 L 93.394531 93.328125 C 93.394531 92.851562 93.285156 92.398438 93.101562 91.988281 C 93.285156 91.582031 93.394531 91.128906 93.394531 90.652344 L 93.394531 68.808594 C 93.394531 68.332031 93.285156 67.878906 93.101562 67.46875 C 93.285156 67.0625 93.394531 66.609375 93.394531 66.128906 L 93.394531 44.289062 C 93.394531 42.515625 91.953125 41.074219 90.179688 41.074219 L 65.34375 41.074219 C 63.570312 41.074219 62.128906 42.515625 62.128906 44.289062 L 62.128906 65.59375 L 37.828125 65.59375 C 36.054688 65.59375 34.613281 67.035156 34.613281 68.808594 L 34.613281 90.652344 C 34.613281 91.128906 34.722656 91.582031 34.910156 91.988281 C 34.722656 92.398438 34.613281 92.851562 34.613281 93.328125 L 34.613281 115.171875 C 34.613281 115.648438 34.722656 116.101562 34.910156 116.511719 C 34.722656 116.917969 34.613281 117.371094 34.613281 117.847656 L 34.613281 139.695312 C 34.613281 141.464844 36.054688 142.90625 37.828125 142.90625 L 62.667969 142.90625 C 63.144531 142.90625 63.597656 142.800781 64.003906 142.613281 C 64.414062 142.800781 64.867188 142.90625 65.34375 142.90625 L 147.050781 142.90625 C 149.640625 142.90625 151.945312 141.167969 152.652344 138.675781 L 155.585938 128.355469 L 158.1875 118.992188 C 158.589844 117.582031 158.3125 116.097656 157.425781 114.925781 " fill-opacity="1" fill-rule="nonzero"></path></svg>